<svg width="29" height="30" viewBox="0 0 29 30" fill="none" xmlns="http://www.w3.org/2000/svg">
<rect x="0.277427" y="0.509239" width="28.2976" height="28.2976" rx="1.59406" fill="#FFCA20"/>
<rect x="0.277427" y="0.509239" width="28.2976" height="28.2976" rx="1.59406" stroke="#FFCA20" stroke-width="0.554855"/>
<g clip-path="url(#clip0_131_258)">
<path d="M19.0948 13.593C19.494 13.593 19.8206 13.2734 19.8206 12.8829V12.1728H20.5465C20.9457 12.1728 21.2723 11.8533 21.2723 11.4628C21.2723 11.0722 20.9457 10.7527 20.5465 10.7527H19.8206V10.0426C19.8206 9.65211 19.494 9.33258 19.0948 9.33258C18.6956 9.33258 18.3689 9.65211 18.3689 10.0426V10.7527H17.6431C17.2439 10.7527 16.9172 11.0722 16.9172 11.4628C16.9172 11.8533 17.2439 12.1728 17.6431 12.1728H18.3689V12.8829C18.3689 13.2734 18.6956 13.593 19.0948 13.593Z" fill="black"/>
<path d="M11.5023 9.95745C11.2192 9.68052 10.7619 9.68052 10.4788 9.95745L9.9635 10.4616L9.44815 9.95745C9.16507 9.68052 8.70779 9.68052 8.42471 9.95745C8.14163 10.2344 8.14163 10.6817 8.42471 10.9586L8.94006 11.4628L8.42471 11.9669C8.14163 12.2439 8.14163 12.6912 8.42471 12.9681C8.56988 13.1101 8.75134 13.174 8.94006 13.174C9.12878 13.174 9.31024 13.103 9.45541 12.9681L9.97076 12.464L10.4861 12.9681C10.6313 13.1101 10.8127 13.174 11.0015 13.174C11.1902 13.174 11.3716 13.103 11.5168 12.9681C11.7999 12.6912 11.7999 12.2439 11.5168 11.9669L11.0015 11.4628L11.5168 10.9586C11.7999 10.6817 11.7999 10.2344 11.5168 9.95745H11.5023Z" fill="black"/>
<path d="M25.6128 19.1031L24.4732 9.62375C24.2555 7.84149 22.7022 6.49237 20.8658 6.49237H18.7101V6.56338H9.69509V6.49237H8.61358C6.76994 6.49237 5.22389 7.84149 5.00614 9.62375L3.86657 19.1031C3.85931 19.1883 3.85205 19.2735 3.85205 19.3587V20.6936C3.85205 21.8652 4.83194 22.8238 6.02958 22.8238H7.39416C9.05634 22.8238 10.508 21.7161 10.9145 20.1327L10.9363 20.0475C11.0306 19.6641 10.7984 19.2806 10.4064 19.1883C10.0145 19.0889 9.6225 19.3232 9.52814 19.7067L9.50637 19.7919C9.33216 20.4664 8.83859 20.999 8.20711 21.2475V19.2806C8.20711 18.109 7.22722 17.1504 6.02958 17.1504H5.56504L6.45057 9.80127C6.58122 8.72907 7.5103 7.9196 8.62084 7.9196H20.8731C21.9763 7.9196 22.9127 8.72907 23.0433 9.80127L23.9289 17.1504H23.4643C22.2667 17.1504 21.2868 18.109 21.2868 19.2806V21.2475C20.6553 20.999 20.1617 20.4735 19.9875 19.7919L19.9658 19.7067C19.8714 19.3303 19.4722 19.096 19.0875 19.1883C18.6955 19.2877 18.4633 19.6712 18.5576 20.0475L18.5794 20.1327C18.9859 21.7161 20.4376 22.8167 22.0997 22.8167H23.4643C24.662 22.8167 25.6419 21.8581 25.6419 20.6865V19.3516C25.6419 19.2664 25.6419 19.1812 25.6273 19.096L25.6128 19.1031ZM6.02958 18.5635C6.42879 18.5635 6.75542 18.883 6.75542 19.2735V21.4037H6.02958C5.63037 21.4037 5.30374 21.0842 5.30374 20.6936V19.3587C5.30374 19.3587 5.30374 19.3019 5.30374 19.2735L5.39084 18.5635H6.02958ZM24.1757 20.6936C24.1757 21.0842 23.849 21.4037 23.4498 21.4037H22.724V19.2735C22.724 18.883 23.0506 18.5635 23.4498 18.5635H24.0886L24.1757 19.2735C24.1757 19.2735 24.1757 19.3303 24.1757 19.3587V20.6936Z" fill="black"/>
<path d="M15.4656 12.8829H14.0139C13.6147 12.8829 13.2881 13.2024 13.2881 13.5929C13.2881 13.9835 13.6147 14.303 14.0139 14.303H15.4656C15.8648 14.303 16.1915 13.9835 16.1915 13.5929C16.1915 13.2024 15.8648 12.8829 15.4656 12.8829Z" fill="black"/>
<path d="M15.1026 15.7232H14.3767C13.9775 15.7232 13.6509 16.0427 13.6509 16.4333C13.6509 16.8238 13.9775 17.1433 14.3767 17.1433H15.1026C15.5018 17.1433 15.8284 16.8238 15.8284 16.4333C15.8284 16.0427 15.5018 15.7232 15.1026 15.7232Z" fill="black"/>
<path d="M11.1105 18.2084C12.1127 18.2084 12.9251 17.4136 12.9251 16.4332C12.9251 15.4528 12.1127 14.6581 11.1105 14.6581C10.1083 14.6581 9.2959 15.4528 9.2959 16.4332C9.2959 17.4136 10.1083 18.2084 11.1105 18.2084Z" fill="black"/>
<path d="M18.3691 18.2083C19.3712 18.2083 20.1837 17.4136 20.1837 16.4332C20.1837 15.4528 19.3712 14.658 18.3691 14.658C17.3669 14.658 16.5544 15.4528 16.5544 16.4332C16.5544 17.4136 17.3669 18.2083 18.3691 18.2083Z" fill="black"/>
</g>
<defs>
<clipPath id="clip0_131_258">
<rect width="21.7753" height="16.3315" fill="white" transform="translate(3.85205 6.49237)"/>
</clipPath>
</defs>
</svg>
