<svg width="29" height="29" viewBox="0 0 29 29" fill="none" xmlns="http://www.w3.org/2000/svg">
<rect x="0.277427" y="0.361717" width="28.2976" height="28.2976" rx="1.59406" fill="white"/>
<rect x="0.277427" y="0.361717" width="28.2976" height="28.2976" rx="1.59406" stroke="#1B1B1B" stroke-width="0.554855"/>
<g clip-path="url(#clip0_131_270)">
<path d="M22.4618 7.59428H20.3849V6.20965C20.3849 5.82888 20.0733 5.51733 19.6925 5.51733H8.61549C8.23472 5.51733 7.92318 5.82888 7.92318 6.20965V7.59428H5.84623C4.70391 7.59428 3.76929 8.52891 3.76929 9.67123V11.0559C3.76929 12.9666 5.32007 14.5174 7.23086 14.5174H7.92318V14.649C7.92318 15.3067 8.24164 15.9298 8.77473 16.3313L12.0148 18.6852C12.3263 18.9067 12.7555 18.8375 12.984 18.5329C13.2125 18.2213 13.1432 17.7921 12.8317 17.5636L9.59858 15.2167C9.41858 15.0851 9.30781 14.8705 9.30781 14.649V9.67123H19.0002V14.649C19.0002 14.8705 18.8895 15.0782 18.7164 15.2097L15.4763 17.5636C15.1648 17.7852 15.0956 18.2213 15.324 18.5329C15.4625 18.7198 15.6702 18.8167 15.8848 18.8167C16.0233 18.8167 16.1687 18.7752 16.2933 18.6852L19.5402 16.3244C20.0733 15.9298 20.3849 15.2997 20.3849 14.649V14.5174H21.0772C22.988 14.5174 24.5387 12.9666 24.5387 11.0559V9.67123C24.5387 8.52891 23.6041 7.59428 22.4618 7.59428ZM7.23086 13.1328C6.08854 13.1328 5.15392 12.1982 5.15392 11.0559V9.67123C5.15392 9.29045 5.46546 8.97891 5.84623 8.97891H7.92318V13.1328H7.23086ZM9.30781 8.28659V6.90196H19.0002V8.28659H9.30781ZM23.1541 11.0559C23.1541 12.1982 22.2195 13.1328 21.0772 13.1328H20.3849V8.97891H22.4618C22.8426 8.97891 23.1541 9.29045 23.1541 9.67123V11.0559Z" fill="black"/>
<path d="M14.327 11.0558H13.9809C13.6001 11.0558 13.2886 11.3674 13.2886 11.7482C13.2886 12.1289 13.6001 12.4405 13.9809 12.4405H14.327C14.7078 12.4405 15.0194 12.1289 15.0194 11.7482C15.0194 11.3674 14.7078 11.0558 14.327 11.0558Z" fill="black"/>
<path d="M11.2116 11.0558C10.8308 11.0558 10.5193 11.3674 10.5193 11.7482C10.5193 12.1289 10.8308 12.4405 11.2116 12.4405H11.5578C11.9385 12.4405 12.2501 12.1289 12.2501 11.7482C12.2501 11.3674 11.9385 11.0558 11.5578 11.0558H11.2116Z" fill="black"/>
<path d="M17.0963 12.4405C17.4771 12.4405 17.7886 12.1289 17.7886 11.7482C17.7886 11.3674 17.4771 11.0558 17.0963 11.0558H16.7502C16.3694 11.0558 16.0579 11.3674 16.0579 11.7482C16.0579 12.1289 16.3694 12.4405 16.7502 12.4405H17.0963Z" fill="black"/>
<path d="M21.7694 22.119H20.3848V21.4267H7.92314V22.119H6.53851C6.15773 22.119 5.84619 22.4306 5.84619 22.8113C5.84619 23.1921 6.15773 23.5036 6.53851 23.5036H21.7694C22.1502 23.5036 22.4618 23.1921 22.4618 22.8113C22.4618 22.4306 22.1502 22.119 21.7694 22.119Z" fill="black"/>
<path d="M16.5772 19.0036H11.731V21.0805H16.5772V19.0036Z" fill="black"/>
</g>
<defs>
<clipPath id="clip0_131_270">
<rect width="20.7695" height="17.9863" fill="white" transform="translate(3.76929 5.51733)"/>
</clipPath>
</defs>
</svg>
