<svg width="29" height="30" viewBox="0 0 29 30" fill="none" xmlns="http://www.w3.org/2000/svg">
<rect x="0.277427" y="0.695091" width="28.2976" height="28.2976" rx="1.59406" fill="#FFCA20"/>
<rect x="0.277427" y="0.695091" width="28.2976" height="28.2976" rx="1.59406" stroke="#1B1B1B" stroke-width="0.554855"/>
<g clip-path="url(#clip0_131_266)">
<path d="M12.4077 22.4217H6.45648V17.4962H7.21426C8.46852 17.4962 9.4876 16.4771 9.4876 15.2228C9.4876 13.9686 8.46852 12.9495 7.21426 12.9495H6.45648V8.01739H12.4077C12.8258 8.01739 13.1654 7.6777 13.1654 7.25961C13.1654 6.84153 12.8258 6.50183 12.4077 6.50183H5.6987C5.28061 6.50183 4.94092 6.84153 4.94092 7.25961V13.7007C4.94092 14.1188 5.28061 14.4585 5.6987 14.4585H7.21426C7.63234 14.4585 7.97204 14.7982 7.97204 15.2163C7.97204 15.6344 7.63234 15.9741 7.21426 15.9741H5.6987C5.28061 15.9741 4.94092 16.3138 4.94092 16.7319V23.173C4.94092 23.5911 5.28061 23.9308 5.6987 23.9308H12.4077C12.8258 23.9308 13.1654 23.5911 13.1654 23.173C13.1654 22.7549 12.8258 22.4152 12.4077 22.4152V22.4217Z" fill="black"/>
<path d="M7.97214 8.77515C7.55405 8.77515 7.21436 9.11484 7.21436 9.53293C7.21436 9.95101 7.55405 10.2907 7.97214 10.2907H8.35103C8.76911 10.2907 9.10881 9.95101 9.10881 9.53293C9.10881 9.11484 8.76911 8.77515 8.35103 8.77515H7.97214Z" fill="black"/>
<path d="M11.0031 8.77515C10.5851 8.77515 10.2454 9.11484 10.2454 9.53293C10.2454 9.95101 10.5851 10.2907 11.0031 10.2907H11.382C11.8001 10.2907 12.1398 9.95101 12.1398 9.53293C12.1398 9.11484 11.8001 8.77515 11.382 8.77515H11.0031Z" fill="black"/>
<path d="M22.2653 17.4896C21.011 17.4896 19.992 16.4706 19.992 15.2163C19.992 13.962 21.011 12.943 22.2653 12.943H24.5386V7.25961C24.5386 6.84153 24.1989 6.50183 23.7809 6.50183H14.6875V23.9373H23.7809C24.1989 23.9373 24.5386 23.5976 24.5386 23.1795V17.4962H22.2653V17.4896ZM19.6131 22.4152H16.5819C16.1639 22.4152 15.8242 22.0755 15.8242 21.6574C15.8242 21.2393 16.1639 20.8997 16.5819 20.8997H19.6131C20.0312 20.8997 20.3709 21.2393 20.3709 21.6574C20.3709 22.0755 20.0312 22.4152 19.6131 22.4152Z" fill="black"/>
</g>
<defs>
<clipPath id="clip0_131_266">
<rect width="19.5978" height="17.4355" fill="white" transform="translate(4.94092 6.50183)"/>
</clipPath>
</defs>
</svg>
