<svg width="29" height="30" viewBox="0 0 29 30" fill="none" xmlns="http://www.w3.org/2000/svg">
<rect x="0.277427" y="1.0284" width="28.2976" height="28.2976" rx="1.59406" fill="white"/>
<rect x="0.277427" y="1.0284" width="28.2976" height="28.2976" rx="1.59406" stroke="white" stroke-width="0.554855"/>
<g clip-path="url(#clip0_131_338)">
<path d="M8.84105 8.75409H8.06347C7.63302 8.75409 7.28589 9.10122 7.28589 9.53167C7.28589 9.96212 7.63302 10.3093 8.06347 10.3093H8.84105C9.2715 10.3093 9.61863 9.96212 9.61863 9.53167C9.61863 9.10122 9.2715 8.75409 8.84105 8.75409Z" fill="black"/>
<path d="M12.7222 8.75409H11.9446C11.5141 8.75409 11.167 9.10122 11.167 9.53167C11.167 9.96212 11.5141 10.3093 11.9446 10.3093H12.7222C13.1526 10.3093 13.4997 9.96212 13.4997 9.53167C13.4997 9.10122 13.1526 8.75409 12.7222 8.75409Z" fill="black"/>
<path d="M15.8254 5.65076H6.51525C5.23086 5.65076 4.18945 6.6991 4.18945 7.9835V21.5287C4.18945 22.8061 5.23086 23.8545 6.51525 23.8545H15.8254C17.1098 23.8545 18.1581 22.8061 18.1581 21.5287V7.9835C18.1581 6.6991 17.1098 5.65076 15.8254 5.65076ZM16.603 21.5287C16.603 21.9522 16.2558 22.2993 15.8254 22.2993H6.51525C6.08481 22.2993 5.73767 21.9522 5.73767 21.5287V7.9835C5.73767 7.55305 6.08481 7.20592 6.51525 7.20592H15.8254C16.2558 7.20592 16.603 7.55305 16.603 7.9835V21.5287Z" fill="black"/>
<path d="M24.0943 5.8244C23.8166 5.63694 23.4625 5.60223 23.157 5.72026L21.5186 6.8172V22.4938L23.157 23.6532C23.2751 23.7018 23.4 23.7226 23.5319 23.7226C23.7333 23.7226 23.9277 23.6671 24.0943 23.5491C24.372 23.3616 24.5386 23.0492 24.5386 22.7159V6.65752C24.5386 6.32427 24.372 6.01185 24.0943 5.8244Z" fill="black"/>
<path d="M20.8797 7.18512V22.2021L18.1582 20.3276V9.05964L20.8797 7.18512Z" fill="black"/>
</g>
<defs>
<clipPath id="clip0_131_338">
<rect width="20.349" height="18.2037" fill="white" transform="translate(4.18945 5.65076)"/>
</clipPath>
</defs>
</svg>
