<svg width="346" height="45" viewBox="0 0 346 45" fill="none" xmlns="http://www.w3.org/2000/svg">
<g clip-path="url(#clip0_131_213)">
<path d="M178.177 12L173.647 16.6886L161.926 16.7683L156 22.7924V16.272L160.085 12.0276L178.177 12Z" fill="white"/>
<path d="M168.777 17.653H162.274L156 23.9207L163.087 31H173.07L179 25.0765L173.487 19.5691H170.819L166.379 24.0043H171.548L172.611 25.066L171.194 26.4819H165.379L162.67 23.7752C162.67 23.7752 168.808 17.6227 168.776 17.6536L168.777 17.653Z" fill="white"/>
<path d="M178.177 12L173.647 16.6886L161.926 16.7683L156 22.7924V16.272L160.085 12.0276L178.177 12Z" fill="#FAD10E"/>
<path d="M168.777 17.653H162.274L156 23.9207L163.087 31H173.07L179 25.0765L173.487 19.5691H170.819L166.379 24.0043H171.548L172.611 25.066L171.194 26.4819H165.379L162.67 23.7752C162.67 23.7752 168.808 17.6227 168.776 17.6536L168.777 17.653Z" fill="#FAD10E"/>
</g>
<path d="M68.9874 18.5191V19.8593H78.939V24.1562H68.9874V25.9628H79.4682V30.2597H62.3108V14.2222H79.4682V18.5191H68.9874Z" fill="white"/>
<path d="M99.9728 30.2596H94.1466L94.0471 30.1555L86.4975 22.0733V30.2596H80.4768V14.222H86.4975L94.0471 22.1231V14.222H99.8281C99.2807 14.7518 98.8194 15.3812 98.471 16.092C98.0097 17.0202 97.7744 18.0254 97.7744 19.0713V25.279C97.7744 26.3249 98.0097 27.3301 98.4665 28.2538C98.8465 29.028 99.3622 29.7027 99.9728 30.2596Z" fill="white"/>
<path d="M60.7922 14.222V30.2596H54.767V22.0733L46.9957 30.3909L46.9505 30.4407L46.9052 30.3909L39.134 22.0733V30.2596H37.7046L35.271 25.4012L33.8642 22.5849L33.1133 21.0862V14.222H39.134L46.9505 22.4038L54.767 14.222H60.7922Z" fill="white"/>
<path d="M34.0566 26.2117L32.6498 23.3954L28.0585 14.222H21.8298L17.2385 23.3954L16.8992 24.0746L13.8052 30.2596H19.9616L21.2462 27.6923H28.6421L29.9267 30.2596H36.0831L34.0566 26.2117ZM23.3949 23.3954L24.9464 20.3029L26.4934 23.3954H23.3949Z" fill="white"/>
<path d="M4.28822 18.5191V25.9673L13.6834 25.9492L13.7286 23.966H6.98871V20.2034H17.1574V20.6834L15.5154 23.966L14.5112 25.9673L13.9051 27.1808L12.4485 30.0877L12.4395 30.1058L12.3445 30.2597H4.28822L3.42424 30.1737L3.01261 30.065C2.87691 30.0243 2.74573 29.979 2.61907 29.9247L1.25299 29.001C0.597094 28.3445 0.153797 27.4796 0.0361875 26.5062C0.0226172 26.4201 0.0135703 26.3341 0.00904688 26.2435C0.00452344 26.153 0 26.0579 0 25.9673V18.5145C0 16.142 1.91794 14.2222 4.28822 14.2222H17.1574V18.5191H4.28822Z" fill="white"/>
<path d="M116.981 15.6031C115.963 14.3987 114.47 13.7059 112.892 13.7059H104.492C102.434 13.7059 100.588 14.8515 99.6833 16.6943C99.3124 17.4369 99.127 18.2383 99.127 19.0759V25.2791C99.127 26.1167 99.3124 26.9181 99.6788 27.6562C100.588 29.5035 102.434 30.6491 104.492 30.6491H112.892C115.85 30.6491 118.257 28.2402 118.257 25.2791V19.0442C118.252 17.781 117.8 16.5585 116.981 15.6031ZM113.285 24.4686C113.285 25.1342 112.747 25.673 112.082 25.673H105.252C104.587 25.673 104.048 25.1342 104.048 24.4686V20.0132C104.048 19.3476 104.587 18.8088 105.252 18.8088H112.082C112.747 18.8088 113.285 19.3476 113.285 20.0132V24.4686Z" fill="white"/>
<path d="M111.964 19.3704H105.378C104.978 19.3704 104.654 19.6947 104.654 20.0948V24.3917C104.654 24.7918 104.978 25.1162 105.378 25.1162H111.964C112.364 25.1162 112.688 24.7918 112.688 24.3917V20.0948C112.688 19.6947 112.364 19.3704 111.964 19.3704Z" fill="#FFCA20"/>
<path d="M144.515 14.222L141.57 22.182L140.104 26.1438L138.607 30.2007H131.967L129.954 25.2065L128.289 30.2007H117.469C118.79 28.9737 119.618 27.2214 119.618 25.279V19.0397C119.609 17.4549 119.043 15.92 118.021 14.7246C117.872 14.548 117.718 14.3805 117.55 14.222H121.87L124.788 20.8598L127.687 14.2492L127.701 14.222H132.623L132.636 14.2492L135.622 21.0545L138.621 14.222H144.515Z" fill="white"/>
<path d="M190.924 20.3004L192.172 19.0522L197.677 24.5567L196.428 25.8049L190.924 20.3004ZM196.553 18.9149L197.826 20.1881L192.072 25.9422L190.799 24.669L196.553 18.9149Z" fill="white"/>
<path d="M229.692 15.378C229.692 15.378 226.446 16.368 224.994 20.2408C223.542 24.1136 226.361 27.4914 227.343 28.1902C228.326 28.8891 229.479 29.4424 229.692 29.5152C229.906 29.588 230.362 29.8937 229.593 30.447C228.824 31.0002 223.029 34.0431 218.017 29.355L216.793 16.2224C216.793 16.2224 218.729 14.6209 220.381 13.7765C222.032 12.9321 226.076 12.4662 228.354 13.7765C230.632 15.0868 230.169 15.187 229.692 15.378Z" fill="#EE2327"/>
<path d="M242.846 32.0268C239.945 32.0268 237.915 30.8579 236.755 28.5195L239.892 26.7265C240.473 27.8868 241.457 28.467 242.846 28.467C243.812 28.467 244.534 28.2387 245.008 27.7814C245.483 27.3244 245.72 26.7003 245.72 25.9091V13.1995H249.332V25.9092C249.332 27.843 248.726 29.3463 247.513 30.4181C246.3 31.4911 244.744 32.0268 242.846 32.0268Z" fill="white"/>
<path d="M260.75 18.4733H264.151V31.6578H260.75V30.1021C259.73 31.3856 258.298 32.0268 256.452 32.0268C254.694 32.0268 253.186 31.3543 251.93 30.0097C250.673 28.6651 250.044 27.017 250.044 25.0655C250.044 23.1141 250.673 21.466 251.93 20.1215C253.186 18.7768 254.694 18.1041 256.452 18.1041C258.298 18.1041 259.73 18.7461 260.75 20.0289V18.4733ZM254.474 27.7421C255.16 28.4368 256.03 28.7837 257.085 28.7837C258.139 28.7837 259.014 28.4368 259.708 27.7421C260.403 27.0478 260.75 26.1557 260.75 25.0655C260.75 23.9761 260.403 23.0838 259.708 22.3889C259.014 21.6948 258.139 21.3473 257.085 21.3473C256.03 21.3473 255.16 21.6948 254.474 22.3889C253.789 23.0838 253.446 23.9761 253.446 25.0655C253.446 26.1557 253.789 27.048 254.474 27.7421Z" fill="white"/>
<path d="M270.307 28.4672H276.161V31.6579H265.764V29.3933L271.324 21.6639H266.024V18.4733H275.902V20.7338L270.307 28.4672Z" fill="white"/>
<path d="M281.461 28.4672H287.315V31.6579H276.918V29.3933L282.478 21.6639H277.178V18.4733H287.057V20.7338L281.461 28.4672Z" fill="white"/>
<path d="M297.692 32.0267C294.915 32.0267 292.62 31.1037 290.81 29.2583C288.999 27.4122 288.094 25.1362 288.094 22.4287C288.094 19.7037 288.999 17.4228 290.81 15.5856C292.621 13.7492 294.915 12.8302 297.692 12.8302C299.362 12.8302 300.905 13.2214 302.32 14.0036C303.735 14.7862 304.838 15.8456 305.629 17.1812L302.492 19.0004C302.034 18.1742 301.384 17.5285 300.54 17.0623C299.697 16.597 298.747 16.3637 297.692 16.3637C295.899 16.3637 294.453 16.9264 293.355 18.051C292.256 19.1766 291.707 20.6352 291.707 22.4287C291.707 24.2046 292.256 25.6546 293.355 26.7796C294.453 27.9046 295.899 28.4671 297.692 28.4671C298.747 28.4671 299.701 28.2343 300.553 27.7682C301.406 27.3029 302.052 26.6654 302.492 25.8567L305.629 27.6759C304.838 29.012 303.739 30.0713 302.333 30.8534C300.927 31.636 299.38 32.0267 297.692 32.0267Z" fill="white"/>
<path d="M317.284 18.4733H320.686V31.6578H317.284V30.1021C316.264 31.3856 314.832 32.0268 312.986 32.0268C311.228 32.0268 309.72 31.3543 308.464 30.0097C307.207 28.6651 306.579 27.017 306.579 25.0655C306.579 23.1141 307.207 21.466 308.464 20.1215C309.72 18.7768 311.228 18.1041 312.986 18.1041C314.832 18.1041 316.264 18.7461 317.284 20.0289V18.4733ZM311.009 27.7421C311.694 28.4368 312.564 28.7837 313.619 28.7837C314.674 28.7837 315.548 28.4368 316.243 27.7421C316.937 27.0478 317.284 26.1557 317.284 25.0655C317.284 23.9761 316.937 23.0838 316.243 22.3889C315.548 21.6948 314.674 21.3473 313.619 21.3473C312.564 21.3473 311.694 21.6948 311.009 22.3889C310.323 23.0838 309.98 23.9761 309.98 25.0655C309.98 26.1557 310.323 27.048 311.009 27.7421Z" fill="white"/>
<path d="M325.749 22.2177C325.749 22.5698 325.981 22.8549 326.448 23.0746C326.913 23.2946 327.48 23.4882 328.148 23.6546C328.816 23.8219 329.484 24.033 330.152 24.2873C330.82 24.5424 331.387 24.9689 331.853 25.5664C332.319 26.1642 332.552 26.9115 332.552 27.8076C332.552 29.1619 332.046 30.2034 331.036 30.9326C330.025 31.6617 328.763 32.0267 327.252 32.0267C324.544 32.0267 322.699 30.981 321.714 28.8886L324.668 27.2275C325.054 28.3706 325.916 28.9416 327.252 28.9416C328.465 28.9416 329.071 28.5639 329.071 27.8076C329.071 27.4561 328.838 27.171 328.372 26.9507C327.907 26.7311 327.34 26.5331 326.671 26.3575C326.003 26.1817 325.335 25.9621 324.668 25.6981C323.999 25.4345 323.433 25.0175 322.967 24.4458C322.501 23.8748 322.268 23.1584 322.268 22.2964C322.268 20.9958 322.747 19.9722 323.705 19.2245C324.663 18.4777 325.854 18.1039 327.278 18.1039C328.35 18.1039 329.326 18.3458 330.205 18.829C331.084 19.3127 331.778 20.0024 332.288 20.8993L329.388 22.4812C328.966 21.5845 328.263 21.1366 327.278 21.1366C326.838 21.1366 326.474 21.2331 326.184 21.4264C325.894 21.6205 325.749 21.884 325.749 22.2177Z" fill="white"/>
<path d="M341.016 18.1041C342.458 18.1041 343.649 18.588 344.589 19.5543C345.529 20.5212 346 21.8579 346 23.5624V31.6578H342.599V23.9844C342.599 23.1053 342.361 22.4334 341.887 21.9673C341.412 21.5017 340.779 21.2685 339.988 21.2685C339.109 21.2685 338.406 21.5411 337.879 22.0859C337.351 22.6308 337.087 23.4483 337.087 24.5383V31.6578H333.686V13.1995H337.087V19.9502C337.913 18.7198 339.223 18.1041 341.016 18.1041Z" fill="white"/>
<path d="M212.897 13.9314C212.895 13.2932 213.503 12.8175 214.113 12.9978C214.121 13.0002 214.129 13.0028 214.138 13.0054C214.975 13.2683 219.511 15.0951 220.869 19.9957C222.227 24.8963 218.875 29.7098 215.929 30.8408C212.982 31.9717 210.743 32.3051 208.085 31.4352C205.427 30.5653 208.345 29.4199 208.952 29.1733C209.559 28.9269 212.924 27.0131 212.924 24.2003C212.924 21.8319 212.904 15.7832 212.897 13.9314Z" fill="#FFC60A"/>
<defs>
<clipPath id="clip0_131_213">
<rect width="23" height="19" fill="white" transform="translate(156 12)"/>
</clipPath>
</defs>
</svg>
